<svg version="1.1" x="0px" y="0px" viewBox="0 0 53.200001 90.099998" xml:space="preserve" id="svg35" sodipodi:docname="gbc.svg" inkscape:version="1.4.2 (f4327f4, 2025-05-13)" xmlns:inkscape="http://www.inkscape.org/namespaces/inkscape" xmlns:sodipodi="http://sodipodi.sourceforge.net/DTD/sodipodi-0.dtd" xmlns:svg="http://www.w3.org/2000/svg">
    <namedview id="namedview35" pagecolor="#ffffff" bordercolor="#999999" borderopacity="1" inkscape:showpageshadow="2" inkscape:pageopacity="0" inkscape:pagecheckerboard="0" inkscape:deskcolor="#d1d1d1" inkscape:zoom="9.4" inkscape:cx="26.542553" inkscape:cy="57.5" inkscape:window-width="2560" inkscape:window-height="1377" inkscape:window-x="2552" inkscape:window-y="-8" inkscape:window-maximized="1" inkscape:current-layer="svg35"/>
    <g id="g34" transform="translate(-23.4,-5)">
        <path d="M 72.9,5 H 27.1 c -2,0 -3.7,1.7 -3.7,3.8 v 80 c 0,1.7 1.1,3.2 2.8,3.6 4.1,1 12.4,2.7 23.8,2.7 11.4,0 19.7,-1.6 23.8,-2.7 1.6,-0.4 2.8,-1.9 2.8,-3.6 V 8.8 C 76.6,6.7 75,5 72.9,5 Z m 1.5,83.8 c 0,0.7 -0.5,1.3 -1.1,1.4 -3.9,1 -12.1,2.6 -23.3,2.6 C 38.8,92.8 30.6,91.2 26.7,90.2 26,90 25.6,89.4 25.6,88.8 v -80 c 0,-0.8 0.7,-1.4 1.5,-1.4 h 45.8 c 0.8,0 1.5,0.6 1.5,1.4 z" id="path1"/>
        <path d="m 39.4,62.2 h -2.5 v -2.4 c 0,-0.8 -0.6,-1.4 -1.4,-1.4 h -1.3 c -0.8,0 -1.6,0.6 -1.6,1.4 v 2.4 h -2.4 c -0.8,0 -1.4,0.7 -1.4,1.5 V 65 c 0,0.8 0.6,1.4 1.4,1.4 h 2.4 V 69 c 0,0.8 0.7,1.5 1.6,1.5 h 1.3 c 0.8,0 1.4,-0.7 1.4,-1.5 v -2.5 h 2.5 c 0.8,0 1.4,-0.6 1.4,-1.4 v -1.3 c 0,-0.9 -0.6,-1.6 -1.4,-1.6 z" id="path2"/>
        <circle cx="58.700001" cy="66.199997" r="3.0999999" id="circle2"/>
        <circle cx="67.800003" cy="63.299999" r="3.0999999" id="circle3"/>
        <path d="m 47.6,78.6 h -2.8 c -0.5,0 -0.8,0.4 -0.8,0.9 0,0.5 0.4,0.9 0.8,0.9 h 2.8 c 0.5,0 0.8,-0.4 0.8,-0.9 0,-0.5 -0.3,-0.9 -0.8,-0.9 z" id="path3"/>
        <path d="m 55.2,78.6 h -2.8 c -0.5,0 -0.8,0.4 -0.8,0.9 0,0.5 0.4,0.9 0.8,0.9 h 2.8 C 55.7,80.4 56,80 56,79.5 56,79 55.6,78.6 55.2,78.6 Z" id="path4"/>
        <path d="M 71.9,47.5 V 11.7 C 71.9,10.7 71,9.9 70,9.9 H 30 c -1,0 -1.8,0.8 -1.8,1.8 v 35.8 c 0,0.9 0.7,1.7 1.6,1.8 2.7,0.4 9.1,1.1 20.3,1.1 11.2,0 17.6,-0.7 20.3,-1.1 0.8,-0.2 1.5,-0.9 1.5,-1.8 z M 30.7,23.3 c -0.5,0 -1,-0.4 -1,-1 0,-0.5 0.4,-1 1,-1 0.5,0 1,0.4 1,1 0,0.5 -0.5,1 -1,1 z M 64,39.3 C 64,39.7 63.7,40 63.3,40 H 36.7 C 36.3,40 36,39.7 36,39.3 V 14.6 c 0,-0.4 0.3,-0.7 0.7,-0.7 h 26.6 c 0.4,0 0.7,0.3 0.7,0.7 z" id="path5"/>
        <circle cx="61.200001" cy="86.699997" r="0.5" id="circle5"/>
        <circle cx="62.599998" cy="87.900002" r="0.5" id="circle6"/>
        <circle cx="64.099998" cy="89.099998" r="0.5" id="circle7"/>
        <circle cx="61.200001" cy="83.800003" r="0.5" id="circle8"/>
        <circle cx="62.700001" cy="85" r="0.5" id="circle9"/>
        <circle cx="64.199997" cy="86.199997" r="0.5" id="circle10"/>
        <circle cx="65.599998" cy="87.400002" r="0.5" id="circle11"/>
        <circle cx="67.099998" cy="88.599998" r="0.5" id="circle12"/>
        <circle cx="61.299999" cy="80.800003" r="0.5" id="circle13"/>
        <circle cx="62.799999" cy="82.099998" r="0.5" id="circle14"/>
        <circle cx="64.300003" cy="83.300003" r="0.5" id="circle15"/>
        <circle cx="65.699997" cy="84.5" r="0.5" id="circle16"/>
        <circle cx="67.199997" cy="85.699997" r="0.5" id="circle17"/>
        <circle cx="68.599998" cy="86.900002" r="0.5" id="circle18"/>
        <circle cx="70.099998" cy="88.099998" r="0.5" id="circle19"/>
        <circle cx="62.900002" cy="79.099998" r="0.5" id="circle20"/>
        <circle cx="64.300003" cy="80.400002" r="0.5" id="circle21"/>
        <circle cx="65.800003" cy="81.599998" r="0.5" id="circle22"/>
        <circle cx="67.300003" cy="82.800003" r="0.5" id="circle23"/>
        <circle cx="68.699997" cy="84" r="0.5" id="circle24"/>
        <circle cx="70.199997" cy="85.199997" r="0.5" id="circle25"/>
        <circle cx="71.699997" cy="86.400002" r="0.5" id="circle26"/>
        <circle cx="65.900002" cy="78.699997" r="0.5" id="circle27"/>
        <circle cx="67.300003" cy="79.900002" r="0.5" id="circle28"/>
        <circle cx="68.800003" cy="81.099998" r="0.5" id="circle29"/>
        <circle cx="70.300003" cy="82.300003" r="0.5" id="circle30"/>
        <circle cx="71.699997" cy="83.5" r="0.5" id="circle31"/>
        <circle cx="68.900002" cy="78.199997" r="0.5" id="circle32"/>
        <circle cx="70.400002" cy="79.400002" r="0.5" id="circle33"/>
        <circle cx="71.800003" cy="80.599998" r="0.5" id="circle34"/>
    </g>
</svg>
