<svg xmlns:svg="http://www.w3.org/2000/svg" id="svg2" x="0" y="0" enable-background="new 0 0 100 100" version="1.1" viewBox="0 0 85.879 76.254" xml:space="preserve"><path id="path1" d="m 29.273091,48.528444 c -0.751,-0.896 -1.966,-1.113 -2.715,-0.484 l -7.776,6.521 c -0.749,0.627 -0.747,1.861 0.004,2.758 0.75,0.895 1.965,1.111 2.714,0.482 l 7.776,-6.521 c 0.75,-0.627 0.748,-1.861 -0.003,-2.756 z m -7.659,8.156 -1.727,-2.086 6.557,-5.432 1.727,2.086 z"/><path id="path2" d="m 85.594091,6.1624444 c -0.215,-0.279 -1.171,-0.568 -1.32,-0.864 -0.324,-0.644 -0.123,-1.516 -0.73,-2.269 -0.547,-0.677 -1.243,-0.746 -1.84,-1.325 -0.327,-0.318 -0.277,-0.96499996 -0.522,-1.25999996 -0.833,-1 -1.5,0 -1.5,0 0,0 -5.334,5.33399996 -6.834,6.83399996 -1.5,1.5 -1,2 -1,2 l -40.334,32.1659996 c -3.333,-0.833 -3.833,-4 -3,-5.666 0.833,-1.666 2.825,-2.441 0.833,-2.5 -8.831,-0.26 -11,8.333 -14.833,11.5 -3.833,3.166 -7.3329995,-0.666 -11.6669995,3.334 -6.566,6.061 0.004,16.672 2.04,19.205 1.992,2.48 10.3929995,13.053 18.8459995,7.191 4.846,-3.359 2.281,-8.23 5.59,-10.96 3.835,-3.164 12.182,-4.1 13.848,-12.777 0.376,-1.955 -0.813,-0.18 -2.621,0.271 -1.808,0.451 -4.789,-0.725 -4.878,-4.16 l 39.47,-33.53 c 0,0 0.381,0.597 2.17,-0.542 1.789,-1.138 7.957,-5.1839996 7.957,-5.1839996 0,0 1.12,-0.434 0.325,-1.464 z m -73.55,63.8289996 c -0.846,0 -1.532,-0.686 -1.532,-1.531 0,-0.848 0.686,-1.533 1.532,-1.533 0.846,0 1.532,0.686 1.532,1.533 10e-4,0.845 -0.686,1.531 -1.532,1.531 z m 1.137,-3.93 c -0.846,0 -1.532,-0.686 -1.532,-1.533 0,-0.846 0.686,-1.531 1.532,-1.531 0.846,0 1.532,0.686 1.532,1.531 0,0.848 -0.686,1.533 -1.532,1.533 z m 5.147,4.967 -1.624,-1.305 3.079,-3.834 1.624,1.305 z m 21.019,-17.416 c 0,0 -2.601,4.369 -6.333,5.832 -6.167,2.418 -8.167,5.168 -9.333,7.918 0,0 -1.75,-1.668 -3.083,-5.25 -1.333,-3.584 -5.667,-5.75 -6.833,-6.25 -1.166,-0.5 -2.166,-2 -2.166,-3.25 0,0 3.667,-1.834 7.5,-5.168 3.833,-3.332 5.75,-7.125 5.75,-7.125 0,0 1.833,2.625 5.917,1.709 l 4,4.916 c 0,0 0.5,0.584 0,2 -0.502,1.418 -0.085,5.084 4.581,4.668 z m 23.488,-30.741 c -0.618,0.521 -1.66,0.301 -2.331,-0.49 l -1.059,-1.255 c -0.667,-0.791 1.568,-2.679 2.234,-1.886 l 1.061,1.253 c 0.67,0.792 0.711,1.857 0.095,2.378 z m 2.574,-2.275 c -0.618,0.521 -1.629,0.338 -2.261,-0.408 l -0.998,-1.182 c -0.628,-0.745 1.607,-2.634 2.234,-1.887 l 1,1.181 c 0.63,0.747 0.64,1.775 0.025,2.296 z m 2.626,-2.213 c -0.618,0.521 -1.619,0.351 -2.237,-0.379 l -0.976,-1.157 c -0.615,-0.73 1.62,-2.618 2.234,-1.887 l 0.978,1.156 c 0.616,0.731 0.616,1.746 10e-4,2.267 z m 2.594,-2.241 c -0.618,0.521 -1.589,0.385 -2.172,-0.303 l -0.921,-1.09 c -0.58,-0.688 1.655,-2.576 2.234,-1.887 l 0.923,1.09 c 0.582,0.688 0.551,1.669 -0.064,2.19 z m 2.584,-2.27 c -0.618,0.521 -1.568,0.41 -2.125,-0.247 l -0.879,-1.042 c -0.554,-0.657 1.682,-2.545 2.234,-1.887 l 0.881,1.041 c 0.555,0.658 0.504,1.614 -0.111,2.135 z"/></svg>