<?xml version="1.0" encoding="UTF-8" standalone="no"?>
<svg version="1.1" x="0px" y="0px" viewBox="0 0 77.076645 38.082481" enable-background="new 0 0 100 100" xml:space="preserve" id="svg2" width="77.076645" height="38.082481" xmlns="http://www.w3.org/2000/svg" xmlns:svg="http://www.w3.org/2000/svg">
	<defs id="defs2" />
	<namedview id="namedview2" pagecolor="#ffffff" bordercolor="#999999" borderopacity="1" />
	<g id="g1" transform="translate(-11.461677,-30.957992)">
		<circle cx="29.004999" cy="47.181" r="6.835" id="circle1" />
		<path d="m 85.495,42.515 c -4.836,-10.552 -15,-13 -20,-10.833 -4.976,2.156 -15.394,3.166 -15.495,3.166 -0.1,0 -10.519,-1.01 -15.495,-3.167 -5,-2.167 -15.164,0.282 -20,10.833 -5.5,12 -4.5,28.499 11,26.333 15.414,-2.154 24.392,-1.508 24.491,-1.501 v 10e-4 H 50 c 0,0 0.005,0 0.005,0 v -10e-4 c 0.099,-0.007 9.076,-0.653 24.49,1.501 15.5,2.167 16.5,-14.332 11,-26.332 z m -56.49,13.859 c -5.077,0 -9.192,-4.116 -9.192,-9.192 0,-5.077 4.116,-9.192 9.192,-9.192 5.076,0 9.192,4.116 9.192,9.192 0,5.076 -4.115,9.192 -9.192,9.192 z m 22.048,2.433 c -1.838,1.03 -3.583,1.408 -3.897,0.848 -0.314,-0.562 0.92,-1.853 2.758,-2.882 1.837,-1.03 3.582,-1.409 3.896,-0.848 0.315,0.561 -0.919,1.851 -2.757,2.882 z m 1.221,-9.269 c -1.838,1.03 -3.583,1.408 -3.897,0.847 -0.314,-0.561 0.92,-1.852 2.758,-2.881 1.838,-1.03 3.582,-1.409 3.896,-0.848 0.316,0.562 -0.919,1.852 -2.757,2.882 z m 7.239,-4.014 c 0,-2.213 1.795,-4.008 4.008,-4.008 2.213,0 4.006,1.795 4.006,4.008 0,2.213 -1.793,4.008 -4.006,4.008 -2.213,0 -4.008,-1.795 -4.008,-4.008 z m 9.152,12.491 c -2.213,0 -4.008,-1.795 -4.008,-4.008 0,-2.213 1.795,-4.007 4.008,-4.007 2.213,0 4.006,1.794 4.006,4.007 0,2.213 -1.793,4.008 -4.006,4.008 z m 0,-17.5 c 0,-2.213 1.794,-4.007 4.007,-4.007 2.213,0 4.007,1.794 4.007,4.007 0,2.213 -1.794,4.007 -4.007,4.007 -2.213,0 -4.007,-1.794 -4.007,-4.007 z m 9.471,13.493 c -2.213,0 -4.006,-1.795 -4.006,-4.008 0,-2.213 1.793,-4.008 4.006,-4.008 2.213,0 4.008,1.795 4.008,4.008 0,2.213 -1.795,4.008 -4.008,4.008 z" id="path1" />
	</g>
</svg>
