<?xml version="1.0" encoding="UTF-8" standalone="no"?>
<svg version="1.1" x="0px" y="0px" viewBox="0 0 94.845711 73.502426" enable-background="new 0 0 100 100" xml:space="preserve" id="svg1" width="94.845711" height="73.502426" xmlns="http://www.w3.org/2000/svg" xmlns:svg="http://www.w3.org/2000/svg">
	<defs id="defs1" />
	<path d="m 76.422986,0 c -0.833,0.667 -2.5,1.5 -2.5,1.5 -0.833,-1 -2,-1.5 -2,-1.5 -12.667,6.334 -24.5,5.667 -24.5,5.667 0,0 -11.833,0.667 -24.5,-5.667 0,0 -1.167,0.5 -2,1.5 0,0 -1.667,-0.833 -2.5,-1.5 0,0 -23.2829998,12.085 -17.49999984,61.5 C 2.7559862,77.167 12.422986,73 12.422986,73 l 12.667,-16.5 c 0,0 7.999,6.167 22.333,6.167 14.334,0 22.333,-6.167 22.333,-6.167 l 12.667,16.5 c 0,0 9.666,4.167 11.5,-11.5 5.782,-49.415 -17.5,-61.5 -17.5,-61.5 z m -0.777,18.426 c 1.154,-0.57 2.769,0.339 3.604,2.031 0.835,1.692 0.575,3.527 -0.58,4.097 -1.156,0.571 -2.771,-0.339 -3.605,-2.031 -0.835,-1.692 -0.576,-3.526 0.581,-4.097 z m -4.215,-10.945 c 0.915,-0.453 2.195,0.27 2.858,1.611 0.662,1.341 0.456,2.798 -0.46,3.25 -0.917,0.452 -2.197,-0.27 -2.859,-1.611 -0.663,-1.343 -0.457,-2.798 0.461,-3.25 z m -3.142,6.96 c 1.154,-0.57 2.769,0.34 3.604,2.031 0.835,1.692 0.575,3.527 -0.58,4.098 -1.156,0.57 -2.771,-0.34 -3.605,-2.031 -0.835,-1.694 -0.575,-3.528 0.581,-4.098 z m -0.49,8.854 c 1.154,-0.57 2.768,0.34 3.604,2.031 0.836,1.692 0.576,3.527 -0.58,4.098 -1.156,0.571 -2.77,-0.34 -3.605,-2.031 -0.835,-1.694 -0.575,-3.528 0.581,-4.098 z m -56.148,-1.795 c 0,-3.385 2.744,-6.128 6.128,-6.128 3.384,0 6.128,2.744 6.128,6.128 0,3.384 -2.744,6.128 -6.128,6.128 -3.384,0 -6.128,-2.743 -6.128,-6.128 z m 13.294,27.876 c -4.166,0 -7.543,-3.377 -7.543,-7.543 0,-4.166 3.377,-7.543 7.543,-7.543 4.166,0 7.543,3.377 7.543,7.543 0,4.166 -3.377,7.543 -7.543,7.543 z m 16.461,3.624 c -1.887,0 -3.417,-1.045 -3.417,-2.334 0,-1.288 1.53,-2.333 3.417,-2.333 1.887,0 3.417,1.045 3.417,2.333 0,1.289 -1.53,2.334 -3.417,2.334 z m 12.035,0 c -1.888,0 -3.418,-1.045 -3.418,-2.334 0,-1.288 1.53,-2.333 3.418,-2.333 1.887,0 3.416,1.045 3.416,2.333 0,1.289 -1.53,2.334 -3.416,2.334 z m -6.018,-15.938 c -7.029,0 -12.728,-5.699 -12.728,-12.728 0,-7.029 5.699,-12.729 12.728,-12.729 7.029,0 12.727,5.699 12.727,12.728 0,7.029 -5.698,12.729 -12.727,12.729 z m 21.688,9.595 c -3.124,0 -5.657,-2.533 -5.657,-5.657 0,-3.124 2.533,-5.657 5.657,-5.657 3.124,0 5.657,2.533 5.657,5.657 0,3.124 -2.532,5.657 -5.657,5.657 z m 9.567,-13.456 c -1.156,0.57 -2.771,-0.34 -3.605,-2.031 -0.835,-1.693 -0.575,-3.527 0.581,-4.098 1.154,-0.57 2.769,0.34 3.604,2.031 0.835,1.693 0.575,3.528 -0.58,4.098 z m 3.224,-16.5 c -0.918,0.453 -2.197,-0.27 -2.859,-1.611 -0.664,-1.342 -0.457,-2.797 0.461,-3.25 0.914,-0.452 2.195,0.27 2.857,1.611 0.662,1.341 0.458,2.799 -0.459,3.25 z" id="path1" />
</svg>
