<svg xmlns="http://www.w3.org/2000/svg" xmlns:xlink="http://www.w3.org/1999/xlink" version="1.1" x="0px" y="0px" viewBox="0 0 100 125" enable-background="new 0 0 100 100" xml:space="preserve">
	<path d="M87.247,42.021c-0.828-6.961-6.176-9.581-6.176-9.581s-0.528-3.519-0.754-4.417c-0.132-0.522-0.5-1.271-1.829-1.836  c-0.022-0.116-0.133-0.618-0.432-0.761c-0.339-0.163-3.333-0.583-4.153-0.611c-0.818-0.029-3.361,0.212-4.096,0.611  c-0.638,0.346-0.694,0.794-0.699,0.907c-1.136,0.675-1.372,1.466-1.372,1.466l-1.13,4.641H33.395l-1.131-4.641  c0,0-0.236-0.791-1.372-1.466c-0.005-0.113-0.062-0.561-0.699-0.907c-0.735-0.399-3.277-0.64-4.097-0.611  c-0.819,0.028-3.814,0.448-4.153,0.611c-0.298,0.143-0.408,0.646-0.43,0.761c-1.331,0.565-1.699,1.314-1.83,1.836  c-0.227,0.898-0.754,4.417-0.754,4.417s-5.349,2.62-6.177,9.581c-0.829,6.961-2.788,24.028-2.788,24.028s0.301,6.212,4.896,8.308  s8.738-0.074,10.773-3.143c2.035-3.069,5.526-9.284,5.526-9.284s2.385,2.922,6.904,2.995c4.52,0.075,7.76-4.565,8.061-5.763h7.748  c0.302,1.197,3.54,5.838,8.06,5.763c4.521-0.073,6.906-2.995,6.906-2.995s3.49,6.215,5.526,9.284  c2.034,3.068,6.177,5.238,10.772,3.143s4.896-8.308,4.896-8.308S88.077,48.982,87.247,42.021z M23.299,37.265  c0-0.494,0.407-0.898,0.904-0.898h2.862c0.497,0,0.904,0.405,0.904,0.898v2.042c0,0.493-0.318,1.151-0.706,1.458l-0.922,0.73  c-0.389,0.308-1.025,0.308-1.414,0l-0.922-0.73c-0.388-0.307-0.707-0.965-0.707-1.458V37.265z M21.605,45.614H19.55  c-0.497,0-0.904-0.404-0.904-0.898v-2.844c0-0.494,0.407-0.897,0.904-0.897h2.055c0.497,0,1.158,0.316,1.468,0.702l0.735,0.916  c0.31,0.386,0.31,1.019,0,1.404l-0.735,0.916C22.763,45.297,22.102,45.614,21.605,45.614z M27.97,49.357  c0,0.493-0.407,0.897-0.904,0.897h-2.862c-0.498,0-0.904-0.404-0.904-0.897v-2.042c0-0.494,0.318-1.149,0.707-1.458l0.922-0.73  c0.388-0.308,1.025-0.308,1.413,0l0.922,0.73c0.388,0.309,0.706,0.964,0.706,1.458V49.357z M29.665,45.614  c-0.498,0-1.158-0.317-1.468-0.703l-0.734-0.916c-0.31-0.385-0.31-1.018,0-1.404l0.734-0.916c0.31-0.386,0.971-0.702,1.468-0.702  h2.055c0.497,0,0.903,0.404,0.903,0.897v2.844c0,0.494-0.407,0.898-0.903,0.898H29.665z M37.396,60.719  c-3.119,0-5.647-2.512-5.647-5.61s2.528-5.611,5.647-5.611c3.119,0,5.647,2.513,5.647,5.611S40.515,60.719,37.396,60.719z   M44.695,43.668c0,0.494-0.407,0.898-0.904,0.898h-2.185c-0.497,0-0.904-0.404-0.904-0.898v-0.749c0-0.493,0.407-0.898,0.904-0.898  h2.185c0.497,0,0.904,0.405,0.904,0.898V43.668z M51.281,54.708h-2.563v-0.938h2.563V54.708z M52.031,50.896c0,0.549-0.45,1-1,1  h-2.063c-0.55,0-1-0.45-1-1v-0.438c0-0.55,0.45-1,1-1h2.063c0.55,0,1,0.45,1,1V50.896z M55.286,44.05v-1.721  c0-0.493,0.384-0.761,0.851-0.594l3.221,1.151c0.47,0.167,0.47,0.441,0,0.608l-3.221,1.151C55.67,44.812,55.286,44.544,55.286,44.05  z M62.634,60.719c-3.12,0-5.648-2.512-5.648-5.61s2.528-5.611,5.648-5.611c3.118,0,5.647,2.513,5.647,5.611  S65.752,60.719,62.634,60.719z M67.639,46.122c-1.665,0-3.012-1.341-3.012-2.994s1.347-2.994,3.012-2.994  c1.664,0,3.014,1.341,3.014,2.994S69.303,46.122,67.639,46.122z M74.496,52.491c-1.666,0-3.013-1.341-3.013-2.995  c0-1.653,1.347-2.993,3.013-2.993c1.662,0,3.012,1.34,3.012,2.993C77.508,51.15,76.158,52.491,74.496,52.491z M74.496,39.686  c-1.666,0-3.013-1.341-3.013-2.995c0-1.652,1.347-2.993,3.013-2.993c1.662,0,3.012,1.341,3.012,2.993  C77.508,38.344,76.158,39.686,74.496,39.686z M81.35,46.122c-1.665,0-3.012-1.341-3.012-2.994s1.347-2.993,3.012-2.993  c1.663,0,3.014,1.34,3.014,2.993S83.013,46.122,81.35,46.122z" />
</svg>
